<svg xmlns="http://www.w3.org/2000/svg" xmlns:xlink="http://www.w3.org/1999/xlink" version="1.1" viewBox="0 0 100 100" fill="#f472b6" xml:space="preserve">
  <g>
    <path d="M42.99,77.58h14.05c7.66,0,13.9-6.23,13.9-13.9v-27.1h3.91c1.1,0,2-0.9,2-2s-0.9-2-2-2h-5.91h-8.02v-4.92   c0-2.89-2.35-5.24-5.24-5.24H44.72c-2.89,0-5.24,2.35-5.24,5.24v4.92h-8.39h-5.94c-1.1,0-2,0.9-2,2s0.9,2,2,2h3.94v27.1   C29.09,71.35,35.33,77.58,42.99,77.58z M43.48,27.66c0-0.68,0.56-1.24,1.24-1.24h10.96c0.68,0,1.24,0.56,1.24,1.24v4.92H43.48   V27.66z M41.48,36.58h17.44h8.02v27.1c0,5.46-4.44,9.9-9.9,9.9H42.99c-5.46,0-9.9-4.44-9.9-9.9v-27.1H41.48z"/>
    <path d="M44.82,61.44c1.1,0,2-0.9,2-2V49.05c0-1.1-0.9-2-2-2s-2,0.9-2,2v10.39C42.82,60.54,43.72,61.44,44.82,61.44z"/>
    <path d="M55.95,61.44c1.1,0,2-0.9,2-2V49.05c0-1.1-0.9-2-2-2s-2,0.9-2,2v10.39C53.95,60.54,54.85,61.44,55.95,61.44z"/>
  </g>
</svg>