<svg xmlns="http://www.w3.org/2000/svg" version="1.1" viewBox="-5.0 -10.0 110.0 135.0">
 <g>
  <path d="m8.2539 36.594c0.36328 1.6875 2.0234 2.7617 3.7109 2.3984 1.6875-0.36328 2.7617-2.0234 2.3984-3.7109-1.3672-5.9961-1.9648-12.141-1.7695-18.289 0.015625 0.019531 0.023438 0.042968 0.039062 0.0625l22.656 22.656c1.2227 1.2109 3.1953 1.207 4.4102-0.011719 1.2188-1.2148 1.2227-3.1875 0.011719-4.4102l-22.656-22.656c-0.015626-0.015624-0.039063-0.019531-0.054688-0.035156 6.1445-0.19141 12.289 0.40234 18.281 1.7656 1.6875 0.36328 3.3477-0.71094 3.7109-2.3984 0.36328-1.6875-0.71094-3.3477-2.3984-3.7109-5.1445-1.1016-22.332-4.3125-27.492 0.84375-5.1602 5.1562-1.9531 22.348-0.84766 27.496z" fill="white"/>
  <path d="m63.41 8.2578c-1.6875 0.36328-2.7617 2.0234-2.3984 3.7109s2.0234 2.7617 3.7109 2.3984c5.9922-1.3711 12.137-1.9648 18.281-1.7695-0.015625 0.015625-0.042968 0.019532-0.058594 0.039063l-22.656 22.656v-0.003907c-0.58984 0.58594-0.92578 1.3828-0.92578 2.2148-0.003906 0.83203 0.32422 1.6328 0.91406 2.2188 0.58594 0.58984 1.3867 0.91797 2.2188 0.91406 0.83203 0 1.6289-0.33594 2.2148-0.92578l22.656-22.656c0.015624-0.015626 0.019531-0.039063 0.039062-0.058594h-0.003906c0.19531 6.1484-0.39844 12.293-1.7656 18.289-0.17578 0.80859-0.019531 1.6562 0.42969 2.3516 0.44922 0.69531 1.1562 1.1836 1.9688 1.3555 0.21484 0.046874 0.4375 0.070312 0.65625 0.070312 1.4727 0 2.7461-1.0273 3.0547-2.4688 1.1055-5.1484 4.3086-22.336-0.84375-27.492-5.1602-5.1523-22.344-1.9492-27.492-0.84375z" fill="white"/>
  <path d="m91.746 63.406c-0.36328-1.6875-2.0234-2.7617-3.7109-2.3984-1.6875 0.36328-2.7617 2.0234-2.3984 3.7109 1.3672 5.9961 1.9648 12.141 1.7695 18.289-0.015625-0.019531-0.023438-0.042968-0.039062-0.0625l-22.656-22.656c-1.2227-1.2109-3.1953-1.207-4.4102 0.011719-1.2188 1.2148-1.2227 3.1875-0.011719 4.4102l22.656 22.656c0.015626 0.015624 0.039063 0.019531 0.054688 0.039062l0.003906-0.003906c-6.1445 0.19531-12.289-0.40234-18.285-1.7656-1.6875-0.36328-3.3477 0.71094-3.7109 2.3984-0.36328 1.6875 0.71094 3.3477 2.3984 3.7109 5.4219 1.1992 10.949 1.8672 16.504 2 3.8867 0.40625 7.7891-0.60547 10.988-2.8477 5.1602-5.1523 1.9531-22.344 0.84766-27.492z" fill="white"/>
  <path d="m9.1016 90.898c3.1992 2.2422 7.1016 3.2539 10.988 2.8477 5.5547-0.13281 11.082-0.80078 16.504-2 1.6875-0.36328 2.7617-2.0234 2.3984-3.7109-0.36328-1.6875-2.0234-2.7617-3.7109-2.3984-5.9961 1.3672-12.141 1.9609-18.289 1.7695 0.019531-0.015625 0.042968-0.023438 0.058593-0.039062l22.656-22.656h0.003907c1.2031-1.2227 1.1953-3.1914-0.019532-4.4023-1.2109-1.2148-3.1797-1.2227-4.4023-0.019532l-22.656 22.656c-0.015624 0.015626-0.019531 0.039063-0.039062 0.058594h0.003906c-0.19531-6.1445 0.40234-12.289 1.7656-18.285 0.36328-1.6875-0.71094-3.3477-2.3984-3.7109-1.6875-0.36328-3.3477 0.71094-3.7109 2.3984-1.1055 5.1484-4.3125 22.34 0.84766 27.492z" fill="white"/>
 </g>
</svg>