<?xml version="1.0" encoding="iso-8859-1"?>
<!-- Uploaded to: SVG Repo, www.svgrepo.com, Generator: SVG Repo Mixer Tools -->
<svg fill="#000000" height="800px" width="800px" version="1.1" id="Layer_1" xmlns="http://www.w3.org/2000/svg" xmlns:xlink="http://www.w3.org/1999/xlink" 
	 viewBox="0 0 512 512" xml:space="preserve">
<g>
	<g>
		<path d="M512,416.744V23.814H0v392.93h190.512v35.721h-41.674v35.721h214.326v-35.721h-41.674v-35.721H512z M35.721,59.535
			h440.558v250.046H35.721V59.535z M285.767,452.465h-59.535v-35.721h59.535V452.465z M35.721,381.023v-35.721h440.558v35.721
			H35.721z"/>
	</g>
</g>
<g>
	<g>
		<path d="M333.395,95.256V273.86h107.163V95.256H333.395z M404.837,238.14h-35.721V130.977h35.721V238.14z"/>
	</g>
</g>
<g>
	<g>
		<path d="M202.419,95.256V273.86h107.163V95.256H202.419z M273.86,238.14H238.14V130.977h35.721V238.14z"/>
	</g>
</g>
<g>
	<g>
		<path d="M71.442,95.256V273.86h107.163V95.256H71.442z M142.884,238.14h-35.721V130.977h35.721V238.14z"/>
	</g>
</g>
</svg>